<?xml version="1.0" standalone="no"?>
<!DOCTYPE svg PUBLIC "-//W3C//DTD SVG 20010904//EN"
 "http://www.w3.org/TR/2001/REC-SVG-20010904/DTD/svg10.dtd">
<svg version="1.0" xmlns="http://www.w3.org/2000/svg"
 width="900.000000pt" height="467.000000pt" viewBox="0 0 900.000000 467.000000"
 preserveAspectRatio="xMidYMid meet">

<g transform="translate(0.000000,467.000000) scale(0.100000,-0.100000)"
fill="#000000" stroke="none">
<path d="M60 2345 l0 -2275 1899 0 1899 0 6 83 c4 45 5 434 4 864 l-3 783 506
0 c278 0 512 1 520 4 8 2 67 7 132 11 121 6 320 29 392 45 129 29 301 102 402
171 23 16 46 29 52 29 6 0 11 5 11 10 0 6 6 10 14 10 8 0 16 3 18 8 2 4 30 30
63 57 76 64 89 77 156 161 153 190 240 398 283 674 27 175 13 474 -31 645 -8
33 -16 68 -18 77 -20 100 -135 322 -224 431 -64 79 -209 209 -291 262 -196
127 -397 182 -730 200 -63 4 -133 9 -155 12 -22 2 -1134 7 -2472 9 l-2432 5
-1 -2276z m4685 1501 c174 -9 258 -21 345 -51 140 -48 269 -157 341 -290 55
-100 76 -323 44 -461 -38 -163 -163 -318 -319 -394 -76 -37 -104 -44 -296 -75
-54 -8 -355 -16 -690 -18 l-305 -2 3 645 c1 355 2 647 2 650 0 8 716 4 875 -4z
m-2725 -119 c234 -39 435 -139 530 -262 148 -193 228 -429 260 -776 20 -214
13 -637 -16 -849 -17 -132 -85 -385 -122 -456 -5 -11 -22 -44 -38 -74 -67
-134 -120 -186 -258 -255 -213 -107 -334 -120 -1058 -116 l-248 1 0 1406 0
1406 433 -5 c304 -4 457 -10 517 -20z"/>
<path d="M4267 1599 c-103 -15 -184 -90 -212 -195 -27 -104 -17 -180 37 -269
54 -90 155 -131 283 -112 71 11 130 50 169 115 33 55 34 82 2 82 -13 0 -44 3
-70 6 -44 7 -46 6 -46 -19 0 -31 -42 -77 -73 -78 -90 -5 -119 8 -147 67 -23
50 -27 139 -9 210 14 56 54 87 114 88 53 1 90 -18 106 -56 12 -29 12 -30 73
-23 34 4 64 10 69 14 6 6 -31 71 -65 112 -22 26 -61 46 -103 53 -22 4 -47 8
-55 10 -8 2 -41 0 -73 -5z"/>
<path d="M4889 1595 c-70 -14 -108 -35 -149 -81 -128 -146 -93 -378 69 -461
48 -25 65 -28 150 -28 89 0 99 2 141 29 85 55 136 133 147 226 5 46 -17 159
-37 183 -5 6 -21 26 -34 42 -56 71 -185 111 -287 90z m149 -122 c42 -26 65
-96 60 -179 -8 -119 -53 -169 -149 -167 -83 2 -128 49 -136 143 -9 93 3 146
42 185 47 47 127 55 183 18z"/>
<path d="M5648 1597 c-30 -6 -61 -21 -86 -43 -52 -44 -66 -44 -59 0 4 25 1 36
-10 40 -19 8 -72 7 -100 0 l-23 -6 0 -278 0 -278 31 -7 c17 -4 50 -4 74 0 l44
6 3 197 c3 215 7 231 62 254 43 17 92 15 116 -7 19 -17 20 -29 20 -237 l0
-219 64 2 c36 1 69 5 75 8 6 4 11 77 11 188 1 147 5 187 18 215 22 42 77 71
121 62 58 -12 62 -29 61 -257 0 -204 0 -205 22 -211 13 -3 40 -6 60 -6 71 0
68 -9 68 212 0 234 -7 271 -61 324 -39 38 -41 39 -117 39 -74 0 -80 -2 -129
-37 -28 -21 -54 -38 -59 -38 -5 0 -18 11 -29 23 -41 49 -105 68 -177 54z"/>
<path d="M7515 1015 l-70 -41 -3 -52 -3 -52 -35 0 -35 0 3 -57 c3 -58 3 -58
35 -57 l31 0 4 -185 c4 -206 12 -237 68 -266 33 -17 126 -20 164 -5 27 10 32
31 20 78 -5 19 -12 22 -38 19 -65 -8 -66 -5 -66 186 l0 172 48 0 47 0 3 58 3
57 -50 0 -50 0 -3 93 -3 93 -70 -41z"/>
<path d="M4355 870 c-49 -12 -78 -26 -110 -54 -16 -14 -33 -26 -37 -26 -5 0
-8 18 -8 40 l0 40 -65 0 -65 0 0 -400 0 -400 76 0 75 0 -3 145 c-2 93 1 145 7
145 6 0 21 -10 35 -23 79 -71 215 -61 288 22 81 92 102 258 48 373 -46 96
-155 159 -241 138z m73 -134 c41 -36 52 -70 51 -153 -1 -133 -35 -186 -123
-187 -90 -1 -134 52 -142 172 -5 67 -3 83 18 122 39 76 138 99 196 46z"/>
<path d="M4959 870 c-73 -13 -136 -51 -185 -112 -7 -8 -22 -42 -34 -76 -18
-50 -22 -75 -18 -127 14 -165 126 -267 294 -267 119 0 210 56 262 162 37 76
38 193 3 260 -48 93 -112 140 -216 159 -32 6 -59 10 -59 10 -1 -1 -22 -5 -47
-9z m151 -140 c74 -74 65 -254 -15 -309 -50 -34 -121 -33 -167 3 -41 31 -58
79 -58 162 1 123 66 190 169 173 29 -4 58 -16 71 -29z"/>
<path d="M6300 869 c-89 -15 -143 -58 -185 -144 -71 -144 -24 -343 96 -405
105 -55 246 -40 327 34 23 20 67 95 60 101 -2 2 -33 6 -69 10 -60 6 -68 5 -73
-11 -10 -30 -55 -57 -95 -57 -73 0 -137 59 -129 120 l3 25 175 0 c96 1 181 3
188 6 38 14 -7 184 -65 246 -56 59 -152 90 -233 75z m109 -119 c28 -14 61 -68
61 -97 0 -23 -2 -23 -120 -23 -115 0 -120 1 -120 21 0 85 102 141 179 99z"/>
<path d="M7960 863 c-76 -19 -124 -58 -159 -128 -63 -124 -46 -280 41 -380 32
-37 119 -66 199 -66 104 -1 180 46 229 139 6 13 10 25 8 27 -2 2 -33 6 -69 10
-62 7 -67 5 -73 -13 -16 -50 -118 -73 -171 -38 -31 21 -57 70 -53 103 l3 25
175 3 c96 1 181 3 188 4 18 2 15 70 -8 143 -41 133 -173 206 -310 171z m144
-120 c25 -18 46 -61 46 -94 0 -17 -10 -19 -120 -19 -115 0 -120 1 -120 21 0
12 7 36 16 54 27 58 123 79 178 38z"/>
<path d="M8564 864 c-77 -15 -83 -18 -120 -64 -90 -112 -24 -224 156 -265 134
-31 148 -35 160 -50 20 -24 4 -61 -32 -76 -17 -7 -57 -12 -87 -12 -48 1 -59 6
-82 31 -15 16 -28 35 -30 41 -3 8 -25 10 -76 5 l-71 -7 13 -31 c40 -95 130
-146 258 -146 84 0 132 12 177 43 50 33 72 70 78 126 9 99 -40 139 -228 187
-127 31 -140 38 -140 68 0 37 23 48 96 47 70 0 114 -19 114 -47 0 -14 10 -15
68 -9 37 4 69 9 71 11 15 15 -70 120 -109 136 -43 18 -155 24 -216 12z"/>
<path d="M5440 587 l0 -285 23 -6 c28 -7 76 -7 104 0 21 6 22 10 25 199 3 178
5 196 24 222 46 61 155 65 185 6 10 -20 15 -85 19 -227 l5 -198 67 -5 c64 -4
68 -3 73 19 3 13 4 111 1 218 -5 247 -16 282 -101 321 -75 34 -175 21 -241
-32 l-39 -31 -5 39 -5 38 -67 3 -68 3 0 -284z"/>
<path d="M6752 583 l3 -288 70 1 70 1 5 194 c3 131 9 201 18 216 26 47 120 71
170 44 33 -18 42 -73 42 -272 l0 -185 73 0 72 1 -1 210 c-1 121 -6 227 -12
250 -20 72 -87 115 -178 115 -45 0 -119 -25 -142 -47 -8 -7 -22 -18 -33 -23
-17 -10 -19 -7 -19 24 0 39 -5 42 -83 45 l-57 2 2 -288z"/>
</g>
</svg>
